<svg width="3288" height="987" viewBox="0 0 3288 987" fill="none" xmlns="http://www.w3.org/2000/svg">
<mask id="mask0_631_170" style="mask-type:luminance" maskUnits="userSpaceOnUse" x="0" y="0" width="3288" height="987">
<path d="M3288 0H0V986.4H3288V0Z" fill="white"/>
</mask>
<g mask="url(#mask0_631_170)">
<path d="M714.658 31.9219C655.284 31.9219 605.806 43.5626 566.224 66.9054C541.847 81.2419 515.237 105.871 486.335 140.855V47.79H235.143V745.438C224.342 756.405 215.352 760.939 208.775 761.735C200.267 762.777 192.061 759.346 181.32 747.644C159.839 724.179 137.031 669.467 118.024 601.399C80.0711 465.141 52.9789 274.846 32.0412 149.922C30.8947 142.203 24.4988 136.382 16.8357 136.076C6.45738 135.586 -1.68841 145.082 0.242445 155.498C21.0595 279.563 48.0311 470.41 87.0705 610.406C106.56 680.373 127.98 737.596 157.788 770.129C172.692 786.426 191.94 797.025 212.757 794.452C221.084 793.41 229.049 790.531 236.772 785.997H486.395V390.579C486.395 338.625 498.101 300.456 521.392 276.071C547.277 249.052 579.257 235.512 617.271 235.512C658.844 235.512 690.1 251.135 710.857 282.443C725.097 303.641 732.156 346.835 732.156 412.084V785.875H981.779V315.834C981.779 218.296 954.627 145.082 900.322 96.3136C852.654 53.3654 790.746 31.9219 714.598 31.9219H714.658ZM216.92 51.0372C206.361 53.733 195.922 56.735 185.544 59.9209L214.748 662.115L216.92 51.0372ZM165.934 66.4765C155.374 70.1525 144.875 74.1349 134.497 78.3623L201.353 687.97L165.934 66.4152V66.4765ZM115.973 86.2045C105.534 90.7995 95.1559 95.6396 84.8983 100.664L178.183 696.057L115.973 86.1432V86.2045ZM70.5979 107.893C60.3402 113.223 50.0826 118.676 39.9456 124.374L154.228 688.889L70.5979 107.832V107.893Z" fill="url(#paint0_linear_631_170)"/>
<path d="M1526.41 245.988V566.905C1526.41 594.781 1525.21 618.431 1522.91 637.975C1520.56 657.458 1515.31 677.247 1507.11 697.281C1493.41 730.978 1470.84 757.262 1439.34 776.071C1407.85 794.88 1369.53 804.254 1324.4 804.254C1283.61 804.254 1249.58 797.698 1222.36 784.587C1195.15 771.476 1173.19 750.339 1156.47 721.053C1147.73 705.43 1140.61 687.479 1135.11 667.138C1129.62 646.797 1126.91 627.437 1126.91 609.057C1126.91 589.574 1132.22 574.686 1142.9 564.332C1153.58 554.039 1167.28 548.892 1183.93 548.892C1200.58 548.892 1212.23 553.61 1220.49 563.106C1228.7 572.603 1235.04 587.368 1239.38 607.402C1244.03 628.846 1248.67 646.001 1253.32 658.806C1257.96 671.61 1265.75 682.638 1276.73 691.829C1287.65 701.019 1303.28 705.614 1323.55 705.614C1377.5 705.614 1404.41 665.361 1404.41 584.856V245.988C1404.41 220.93 1409.78 202.121 1420.64 189.561C1431.44 177.001 1446.16 170.752 1464.81 170.752C1483.45 170.752 1498.66 177.001 1509.76 189.561C1520.86 202.121 1526.41 220.93 1526.41 245.988Z" fill="black"/>
<path d="M2055.15 276.927H1780.48V427.338H2033.36C2051.95 427.338 2065.89 431.565 2075.06 440.081C2084.23 448.597 2088.82 459.809 2088.82 473.717C2088.82 487.624 2084.29 499.02 2075.24 507.781C2066.19 516.543 2052.25 520.954 2033.36 520.954H1780.48V695.197H2064.56C2083.69 695.197 2098.17 699.731 2107.88 708.799C2117.6 717.866 2122.49 729.874 2122.49 744.946C2122.49 760.018 2117.6 771.23 2107.88 780.236C2098.17 789.304 2083.75 793.837 2064.56 793.837H1733.24C1706.69 793.837 1687.62 787.833 1675.98 775.886C1664.33 763.939 1658.54 744.517 1658.54 717.805V257.322C1658.54 239.493 1661.13 224.911 1666.32 213.638C1671.51 202.365 1679.66 194.155 1690.76 189.009C1701.86 183.862 1715.98 181.289 1733.24 181.289H2055.09C2074.52 181.289 2088.94 185.7 2098.41 194.461C2107.82 203.223 2112.59 214.741 2112.59 228.955C2112.59 243.169 2107.88 255.055 2098.41 263.816C2088.94 272.577 2074.52 276.988 2055.09 276.988L2055.15 276.927Z" fill="black"/>
<path d="M2383.16 531.798H2340.5V728.588C2340.5 754.504 2334.89 773.558 2323.67 785.811C2312.44 798.065 2297.78 804.192 2279.74 804.192C2260.31 804.192 2245.23 797.759 2234.55 784.954C2223.86 772.149 2218.56 753.34 2218.56 728.527V257.322C2218.56 230.609 2224.47 211.249 2236.23 199.24C2248 187.293 2267.01 181.289 2293.32 181.289H2491.59C2518.98 181.289 2542.34 182.514 2561.76 184.843C2581.19 187.232 2598.69 192.011 2614.32 199.24C2633.21 207.328 2649.92 218.907 2664.4 233.917C2678.88 248.928 2689.92 266.45 2697.47 286.362C2705.01 306.274 2708.75 327.35 2708.75 349.651C2708.75 395.356 2696.08 431.81 2670.8 459.135C2645.45 486.46 2607.08 505.821 2555.67 517.217C2577.27 528.919 2597.97 546.196 2617.64 569.048C2637.37 591.901 2654.93 616.163 2670.37 641.956C2685.82 667.75 2697.89 690.97 2706.52 711.74C2715.15 732.509 2719.43 746.784 2719.43 754.565C2719.43 762.346 2716.9 770.679 2711.83 778.582C2706.76 786.485 2699.88 792.796 2691.13 797.391C2682.38 801.986 2672.25 804.253 2660.78 804.253C2647.08 804.253 2635.62 800.944 2626.27 794.45C2616.97 787.895 2608.95 779.623 2602.25 769.576C2595.55 759.528 2586.44 744.762 2574.98 725.28L2526.1 642.569C2508.61 612.242 2492.92 589.083 2479.1 573.215C2465.28 557.346 2451.22 546.502 2437.04 540.621C2422.8 534.8 2404.88 531.859 2383.28 531.859L2383.16 531.798ZM2452.97 274.415H2340.5V442.777H2449.71C2478.98 442.777 2503.66 440.204 2523.63 435.057C2543.6 429.911 2558.87 421.15 2569.43 408.712C2579.99 396.337 2585.24 379.243 2585.24 357.554C2585.24 340.583 2581.01 325.573 2572.5 312.646C2564 299.718 2552.23 290.038 2537.21 283.605C2522.97 277.478 2494.91 274.415 2453.03 274.415H2452.97Z" fill="black"/>
<path d="M3220.67 276.927H2946.01V427.338H3198.89C3217.47 427.338 3231.41 431.565 3240.58 440.081C3249.76 448.597 3254.34 459.809 3254.34 473.717C3254.34 487.624 3249.82 499.02 3240.77 507.781C3231.71 516.543 3217.78 520.954 3198.89 520.954H2946.01V695.197H3230.09C3249.21 695.197 3263.69 699.731 3273.41 708.799C3283.12 717.866 3288.01 729.874 3288.01 744.946C3288.01 760.018 3283.12 771.23 3273.41 780.236C3263.69 789.304 3249.27 793.837 3230.09 793.837H2898.76C2872.21 793.837 2853.15 787.833 2841.5 775.886C2829.86 763.939 2824.06 744.517 2824.06 717.805V257.322C2824.06 239.493 2826.66 224.911 2831.85 213.638C2837.04 202.365 2845.18 194.155 2856.28 189.009C2867.39 183.862 2881.51 181.289 2898.76 181.289H3220.61C3240.04 181.289 3254.46 185.7 3263.94 194.461C3273.35 203.223 3278.12 214.741 3278.12 228.955C3278.12 243.169 3273.41 255.055 3263.94 263.816C3254.46 272.577 3240.04 276.988 3220.61 276.988L3220.67 276.927Z" fill="black"/>
<path d="M2645.33 957.117C2645.33 962.693 2643.94 967.716 2641.1 972.189C2638.27 976.661 2634.16 980.092 2628.67 982.666C2623.24 985.178 2616.78 986.464 2609.3 986.464C2600.31 986.464 2592.95 984.749 2587.16 981.318C2583.05 978.867 2579.68 975.559 2577.08 971.392C2574.49 967.288 2573.22 963.244 2573.22 959.323C2573.22 957.056 2574 955.095 2575.57 953.502C2577.08 951.91 2579.07 951.052 2581.49 951.052C2583.42 951.052 2585.05 951.664 2586.37 952.951C2587.7 954.238 2588.85 956.076 2589.81 958.526C2590.96 961.467 2592.23 963.918 2593.55 965.878C2594.88 967.839 2596.75 969.493 2599.23 970.78C2601.64 972.066 2604.84 972.679 2608.82 972.679C2614.25 972.679 2618.66 971.392 2622.09 968.819C2625.47 966.246 2627.22 962.999 2627.22 959.139C2627.22 956.076 2626.32 953.564 2624.45 951.664C2622.64 949.765 2620.22 948.295 2617.33 947.253C2614.43 946.212 2610.51 945.17 2605.68 944.006C2599.17 942.474 2593.74 940.636 2589.33 938.553C2584.93 936.47 2581.43 933.652 2578.89 930.037C2576.3 926.422 2575.03 921.95 2575.03 916.681C2575.03 911.412 2576.42 907.062 2579.13 903.141C2581.85 899.159 2585.77 896.156 2590.96 894.012C2596.15 891.868 2602.18 890.826 2609.18 890.826C2614.73 890.826 2619.56 891.5 2623.6 892.909C2627.65 894.318 2631.02 896.218 2633.74 898.485C2636.46 900.813 2638.39 903.263 2639.59 905.837C2640.8 908.41 2641.46 910.922 2641.46 913.311C2641.46 915.517 2640.68 917.539 2639.11 919.315C2637.6 921.092 2635.61 922.011 2633.32 922.011C2631.21 922.011 2629.58 921.46 2628.49 920.418C2627.4 919.377 2626.2 917.6 2624.93 915.149C2623.3 911.657 2621.31 908.961 2619.02 907.001C2616.72 905.04 2612.98 904.06 2607.85 904.06C2603.09 904.06 2599.29 905.101 2596.39 907.246C2593.49 909.39 2592.05 911.902 2592.05 914.904C2592.05 916.742 2592.53 918.335 2593.55 919.683C2594.52 921.031 2595.91 922.195 2597.66 923.114C2599.41 924.094 2601.16 924.829 2602.91 925.381C2604.66 925.932 2607.61 926.729 2611.72 927.77C2616.84 928.996 2621.49 930.343 2625.59 931.814C2629.76 933.284 2633.26 935.061 2636.15 937.205C2639.05 939.288 2641.34 941.984 2642.97 945.17C2644.6 948.417 2645.45 952.338 2645.45 956.995L2645.33 957.117Z" fill="#02ACC3"/>
<path d="M2720.32 965.081C2720.32 967.225 2719.72 969.492 2718.45 971.943C2717.19 974.394 2715.26 976.722 2712.66 978.866C2710.07 981.072 2706.81 982.849 2702.89 984.196C2698.96 985.544 2694.56 986.218 2689.61 986.218C2679.17 986.218 2671.03 983.094 2665.17 976.906C2659.32 970.718 2656.37 962.385 2656.37 951.97C2656.37 944.924 2657.69 938.675 2660.41 933.284C2663.12 927.892 2666.98 923.665 2672.05 920.724C2677.12 917.783 2683.22 916.312 2690.28 916.312C2694.68 916.312 2698.66 916.986 2702.34 918.273C2705.96 919.56 2709.1 921.275 2711.64 923.297C2714.17 925.38 2716.1 927.524 2717.49 929.853C2718.82 932.181 2719.48 934.325 2719.48 936.347C2719.48 938.369 2718.76 940.145 2717.25 941.555C2715.74 942.964 2713.93 943.699 2711.76 943.699C2710.37 943.699 2709.22 943.331 2708.26 942.596C2707.29 941.861 2706.27 940.697 2705.12 939.043C2703.07 935.857 2700.9 933.467 2698.66 931.874C2696.43 930.281 2693.53 929.485 2690.09 929.485C2685.09 929.485 2681.1 931.445 2678.03 935.428C2674.95 939.41 2673.44 944.863 2673.44 951.725C2673.44 954.972 2673.8 957.913 2674.59 960.609C2675.37 963.304 2676.52 965.633 2678.03 967.532C2679.54 969.431 2681.29 970.902 2683.4 971.882C2685.51 972.862 2687.8 973.352 2690.34 973.352C2693.72 973.352 2696.61 972.556 2699.03 970.963C2701.44 969.37 2703.55 966.919 2705.42 963.672C2706.45 961.711 2707.59 960.241 2708.8 959.138C2710.01 958.035 2711.45 957.484 2713.2 957.484C2715.26 957.484 2717.01 958.28 2718.33 959.873C2719.72 961.466 2720.39 963.182 2720.39 964.959L2720.32 965.081Z" fill="#02ACC3"/>
<path d="M2748.45 901.361V926.909C2750.56 924.397 2752.68 922.375 2754.73 920.905C2756.78 919.435 2759.01 918.332 2761.55 917.597C2764.02 916.861 2766.68 916.494 2769.51 916.494C2773.8 916.494 2777.6 917.413 2780.92 919.251C2784.23 921.089 2786.83 923.784 2788.76 927.338C2789.97 929.421 2790.75 931.688 2791.17 934.261C2791.6 936.773 2791.78 939.714 2791.78 943.022V975.984C2791.78 979.415 2790.99 982.049 2789.42 983.826C2787.85 985.603 2785.8 986.461 2783.27 986.461C2777.72 986.461 2774.88 982.969 2774.88 975.984V946.943C2774.88 941.429 2774.1 937.202 2772.47 934.261C2770.84 931.32 2767.82 929.85 2763.3 929.85C2760.28 929.85 2757.56 930.708 2755.15 932.484C2752.74 934.2 2750.93 936.589 2749.72 939.653C2748.81 942.226 2748.33 946.76 2748.33 953.315V976.045C2748.33 979.476 2747.61 982.049 2746.04 983.826C2744.53 985.603 2742.42 986.522 2739.76 986.522C2734.21 986.522 2731.38 983.03 2731.38 976.045V901.422C2731.38 897.93 2732.1 895.295 2733.55 893.58C2735 891.864 2737.05 890.945 2739.7 890.945C2742.36 890.945 2744.47 891.864 2745.98 893.58C2747.49 895.357 2748.27 897.93 2748.27 901.422L2748.45 901.361Z" fill="#02ACC3"/>
<path d="M2871.73 951.421C2871.73 956.567 2870.95 961.285 2869.38 965.574C2867.81 969.924 2865.52 973.6 2862.56 976.724C2859.6 979.849 2856.04 982.238 2851.88 983.893C2847.78 985.547 2843.13 986.405 2837.94 986.405C2832.75 986.405 2828.23 985.547 2824.12 983.893C2820.02 982.238 2816.52 979.788 2813.5 976.663C2810.55 973.538 2808.25 969.862 2806.69 965.574C2805.12 961.346 2804.33 956.629 2804.33 951.421C2804.33 946.213 2805.12 941.435 2806.69 937.146C2808.25 932.796 2810.49 929.12 2813.44 926.056C2816.34 922.993 2819.96 920.604 2824.12 918.949C2828.29 917.295 2832.87 916.438 2837.94 916.438C2843.01 916.438 2847.72 917.295 2851.88 918.949C2856.04 920.604 2859.6 923.054 2862.62 926.118C2865.58 929.242 2867.87 932.918 2869.44 937.207C2870.95 941.496 2871.79 946.213 2871.79 951.421H2871.73ZM2854.78 951.421C2854.78 944.375 2853.27 938.922 2850.25 935.063C2847.23 931.203 2843.13 929.181 2838 929.181C2834.68 929.181 2831.79 930.039 2829.25 931.816C2826.72 933.531 2824.79 936.166 2823.4 939.535C2822.01 942.905 2821.35 946.887 2821.35 951.421C2821.35 955.955 2822.01 959.876 2823.34 963.184C2824.67 966.554 2826.6 969.127 2829.07 970.904C2831.54 972.681 2834.5 973.6 2837.88 973.6C2843.01 973.6 2847.05 971.639 2850.13 967.718C2853.15 963.797 2854.65 958.344 2854.65 951.421H2854.78Z" fill="#02ACC3"/>
<path d="M2948.29 951.421C2948.29 956.567 2947.51 961.285 2945.94 965.574C2944.37 969.924 2942.08 973.6 2939.12 976.724C2936.16 979.849 2932.6 982.238 2928.44 983.893C2924.34 985.547 2919.69 986.405 2914.5 986.405C2909.31 986.405 2904.79 985.547 2900.68 983.893C2896.58 982.238 2893.08 979.788 2890.07 976.663C2887.05 973.538 2884.82 969.862 2883.25 965.574C2881.68 961.346 2880.89 956.629 2880.89 951.421C2880.89 946.213 2881.68 941.435 2883.25 937.146C2884.82 932.796 2887.05 929.12 2890 926.056C2892.9 922.993 2896.52 920.604 2900.68 918.949C2904.85 917.295 2909.43 916.438 2914.5 916.438C2919.57 916.438 2924.28 917.295 2928.44 918.949C2932.6 920.604 2936.16 923.054 2939.18 926.118C2942.14 929.242 2944.43 932.918 2946 937.207C2947.51 941.496 2948.35 946.213 2948.35 951.421H2948.29ZM2931.34 951.421C2931.34 944.375 2929.83 938.922 2926.81 935.063C2923.79 931.203 2919.69 929.181 2914.56 929.181C2911.24 929.181 2908.35 930.039 2905.81 931.816C2903.28 933.531 2901.35 936.166 2899.96 939.535C2898.57 942.905 2897.91 946.887 2897.91 951.421C2897.91 955.955 2898.57 959.876 2899.9 963.184C2901.23 966.554 2903.16 969.127 2905.69 970.904C2908.17 972.681 2911.12 973.6 2914.5 973.6C2919.63 973.6 2923.67 971.639 2926.75 967.718C2929.77 963.797 2931.28 958.344 2931.28 951.421H2931.34Z" fill="#02ACC3"/>
<path d="M2961.64 975.926V901.303C2961.64 897.872 2962.36 895.237 2963.93 893.461C2965.44 891.684 2967.49 890.826 2970.02 890.826C2972.56 890.826 2974.67 891.684 2976.24 893.461C2977.81 895.176 2978.59 897.811 2978.59 901.303V975.926C2978.59 979.418 2977.81 982.053 2976.18 983.768C2974.55 985.484 2972.56 986.403 2970.02 986.403C2967.49 986.403 2965.56 985.484 2963.99 983.707C2962.42 981.93 2961.64 979.296 2961.64 975.926Z" fill="#02ACC3"/>
<path d="M3088.64 906.875H3047.25V929.544H3085.38C3088.16 929.544 3090.27 930.157 3091.66 931.443C3093.05 932.73 3093.71 934.445 3093.71 936.528C3093.71 938.611 3093.05 940.327 3091.66 941.675C3090.27 943.023 3088.22 943.635 3085.32 943.635H3047.19V969.919H3090.03C3092.93 969.919 3095.1 970.593 3096.55 971.941C3098 973.289 3098.72 975.127 3098.72 977.393C3098.72 979.66 3098 981.376 3096.55 982.724C3095.1 984.072 3092.93 984.745 3090.03 984.745H3040.07C3036.03 984.745 3033.19 983.826 3031.44 982.05C3029.69 980.273 3028.79 977.332 3028.79 973.289V903.873C3028.79 901.177 3029.15 898.972 3029.93 897.317C3030.72 895.602 3031.92 894.377 3033.61 893.58C3035.3 892.784 3037.41 892.416 3040.01 892.416H3088.52C3091.42 892.416 3093.65 893.09 3095.04 894.377C3096.49 895.724 3097.15 897.44 3097.15 899.584C3097.15 901.729 3096.43 903.505 3095.04 904.853C3093.65 906.201 3091.42 906.814 3088.52 906.814L3088.64 906.875Z" fill="#02ACC3"/>
<path d="M3138.13 945.289H3131.67V974.943C3131.67 978.864 3130.83 981.743 3129.14 983.581C3127.45 985.419 3125.21 986.338 3122.5 986.338C3119.6 986.338 3117.31 985.358 3115.68 983.459C3114.05 981.498 3113.27 978.68 3113.27 974.943V903.873C3113.27 899.829 3114.17 896.95 3115.92 895.112C3117.67 893.335 3120.57 892.416 3124.55 892.416H3154.48C3158.58 892.416 3162.14 892.6 3165.04 892.967C3167.93 893.335 3170.59 894.07 3172.94 895.112C3175.78 896.337 3178.31 898.053 3180.49 900.319C3182.66 902.586 3184.35 905.221 3185.43 908.223C3186.58 911.225 3187.12 914.411 3187.12 917.781C3187.12 924.642 3185.25 930.157 3181.39 934.261C3177.59 938.366 3171.8 941.307 3164.01 943.023C3167.27 944.799 3170.41 947.373 3173.37 950.865C3176.32 954.296 3178.98 957.972 3181.33 961.832C3183.68 965.691 3185.49 969.245 3186.76 972.37C3188.09 975.494 3188.69 977.638 3188.69 978.803C3188.69 979.967 3188.33 981.253 3187.55 982.417C3186.76 983.581 3185.73 984.562 3184.41 985.236C3183.08 985.91 3181.57 986.277 3179.82 986.277C3177.77 986.277 3176.02 985.787 3174.63 984.807C3173.24 983.827 3172.04 982.601 3171.01 981.069C3169.99 979.538 3168.6 977.332 3166.91 974.391L3159.55 961.893C3156.89 957.298 3154.54 953.806 3152.49 951.416C3150.44 949.027 3148.26 947.373 3146.15 946.515C3143.98 945.596 3141.33 945.167 3138.07 945.167L3138.13 945.289ZM3148.63 906.446H3131.67V931.872H3148.14C3152.55 931.872 3156.29 931.504 3159.31 930.708C3162.32 929.911 3164.62 928.625 3166.18 926.726C3167.75 924.826 3168.6 922.314 3168.6 919.006C3168.6 916.433 3167.93 914.166 3166.67 912.205C3165.4 910.245 3163.59 908.774 3161.36 907.794C3159.19 906.875 3154.96 906.385 3148.69 906.385L3148.63 906.446Z" fill="#02ACC3"/>
<path d="M3239.79 948.846H3222.96V975.007C3222.96 978.745 3222.05 981.563 3220.36 983.523C3218.62 985.484 3216.44 986.403 3213.79 986.403C3211.13 986.403 3208.78 985.423 3207.09 983.523C3205.4 981.624 3204.56 978.806 3204.56 975.13V903.937C3204.56 899.832 3205.52 896.892 3207.33 895.115C3209.14 893.338 3212.16 892.48 3216.2 892.48H3239.79C3246.79 892.48 3252.1 893.032 3255.9 894.135C3259.65 895.176 3262.84 896.953 3265.56 899.342C3268.27 901.793 3270.33 904.734 3271.71 908.287C3273.1 911.78 3273.83 915.762 3273.83 920.173C3273.83 929.608 3270.99 936.715 3265.32 941.555C3259.65 946.395 3251.14 948.846 3239.85 948.846H3239.79ZM3235.33 906.511H3222.96V934.755H3235.33C3239.67 934.755 3243.29 934.326 3246.19 933.346C3249.09 932.427 3251.32 930.895 3252.83 928.812C3254.34 926.729 3255.12 923.972 3255.12 920.541C3255.12 916.436 3253.97 913.128 3251.62 910.616C3248.97 907.859 3243.54 906.511 3235.33 906.511Z" fill="#02ACC3"/>
</g>
<defs>
<linearGradient id="paint0_linear_631_170" x1="0.00108873" y1="413.309" x2="981.84" y2="413.309" gradientUnits="userSpaceOnUse">
<stop stop-color="#0198E1"/>
<stop offset="1" stop-color="#04DD75"/>
</linearGradient>
</defs>
</svg>
