<svg width="3374" height="659" viewBox="0 0 3374 659" fill="none" xmlns="http://www.w3.org/2000/svg">
<g clip-path="url(#clip0_1292_1528)">
<path d="M2162.4 550.627C2184.4 569.118 2211.2 578.405 2242.81 578.405C2266.92 578.405 2287.85 574.088 2305.61 565.534C2323.37 556.981 2340.72 544.354 2357.91 527.736L2415.02 578.405C2394.57 602.518 2370.38 621.824 2342.19 636.325C2314 650.825 2280.36 658.075 2241.18 658.075C2210.63 658.075 2182.04 652.698 2155.48 641.945C2128.92 631.192 2105.87 616.203 2086.32 596.897C2066.69 577.59 2051.29 554.455 2040.05 527.328C2028.81 500.202 2023.1 470.061 2023.1 436.824C2023.1 406.276 2028.24 377.52 2038.42 350.719C2048.6 323.918 2062.94 300.457 2081.43 280.336C2099.92 260.215 2121.84 244.248 2147.01 232.436C2172.26 220.624 2200.12 214.759 2230.67 214.759C2264.48 214.759 2294.13 220.95 2319.62 233.251C2345.12 245.552 2366.3 262.251 2383.25 283.106C2400.19 304.041 2412.82 328.398 2421.45 356.34C2430.01 384.281 2434.32 413.445 2434.32 444.074C2434.32 448.392 2434.16 452.628 2433.92 456.945C2433.67 461.263 2433.26 465.743 2432.69 470.631L2120.53 470.631C2126.4 505.497 2140.33 532.216 2162.4 550.627ZM2337.79 406.195C2336.16 390.635 2332.66 375.972 2327.36 362.368C2321.99 348.682 2314.74 336.87 2305.61 326.932C2296.49 316.994 2285.66 309.092 2273.03 303.227C2260.4 297.361 2246.06 294.429 2230.02 294.429C2199.96 294.429 2175.19 304.775 2155.56 325.384C2135.93 345.994 2124.03 372.958 2119.72 406.195L2337.79 406.195Z" fill="#8DC440"/>
<path d="M125.86 261.357C129.607 269.34 136.45 276.916 146.388 283.84C156.327 290.765 170.094 297.282 187.527 303.147C204.959 309.093 227.199 315.203 254.081 321.639C283.652 329.215 309.882 337.524 332.773 346.566C355.664 355.69 374.563 366.769 389.634 379.965C404.704 393.081 416.109 408.396 423.848 425.828C431.668 443.261 435.578 463.79 435.578 487.414C435.578 514.215 430.69 538.083 420.833 559.019C410.977 579.954 397.291 597.632 379.695 612.132C362.181 626.632 341.082 637.629 316.481 645.124C291.879 652.618 264.752 656.366 235.263 656.366C191.844 656.366 150.217 649.034 110.545 634.289C70.7917 619.545 34.0524 596.898 0.327148 566.35L59.8758 495.56C87.247 519.184 114.863 537.268 142.723 549.813C170.664 562.44 202.271 568.713 237.626 568.713C268.174 568.713 292.449 562.277 310.453 549.406C328.374 536.535 337.416 519.102 337.416 497.108C337.416 486.925 335.624 477.801 332.121 469.736C328.619 461.753 322.183 454.259 312.734 447.66C303.284 440.98 290.413 434.626 274.039 428.761C257.665 422.896 236.241 416.705 209.929 410.269C179.788 403.345 152.987 395.525 129.689 386.971C106.309 378.418 86.6768 367.665 70.7917 354.794C54.9066 341.923 42.8503 326.363 34.5411 308.116C26.1506 289.95 22.0775 267.629 22.0775 241.399C22.0775 216.716 26.8837 194.314 36.4148 174.274C46.0273 154.153 59.1426 136.883 75.9238 122.383C92.6235 107.883 112.826 96.7223 136.369 88.9834C159.911 81.2445 185.653 77.3344 213.513 77.3344C254.814 77.3344 291.961 83.3625 324.953 95.4189C357.945 107.475 388.9 125.071 417.901 148.125L364.788 222.988C339.046 204.252 313.548 189.915 288.295 179.976C263.042 170.038 237.626 165.069 211.802 165.069C182.802 165.069 160.318 171.667 144.27 184.783C128.141 197.898 120.158 213.946 120.158 232.682C120.158 243.924 122.031 253.618 125.86 261.683V261.357Z" fill="#03577A"/>
<path d="M955.631 235.451C978.929 221.603 1006.71 214.76 1038.97 214.76C1085.64 214.76 1122.14 228.853 1148.45 256.957C1174.76 285.143 1187.88 325.222 1187.88 377.276V648.463H1089.72V407.662C1089.72 373.936 1082.22 348.276 1067.23 330.599C1052.25 312.922 1031.15 304.124 1004.02 304.124C976.893 304.124 955.55 313.084 938.769 331.006C921.988 348.928 913.516 374.995 913.516 409.291V648.545H815.354V406.929C815.354 373.774 807.859 348.357 792.87 330.68C777.881 313.003 756.783 304.205 729.656 304.205C702.529 304.205 680.534 313.573 663.998 332.309C647.379 351.046 639.152 377.032 639.152 410.187V648.626H540.99V223.558L639.152 223.558V288.646C646.076 278.952 653.652 269.665 661.635 261.03C669.619 252.395 678.905 244.494 689.332 237.488C699.76 230.482 711.571 224.861 724.768 220.87C737.884 216.796 752.465 214.841 768.595 214.841C799.143 214.841 825.048 221.684 846.228 235.533C867.408 249.381 883.619 267.629 894.942 290.357C912.131 267.629 932.333 249.381 955.713 235.533L955.631 235.451Z" fill="#03577A"/>
<path d="M1565.29 648.382V596.083C1550.79 613.272 1532.3 627.772 1509.82 639.502C1487.33 651.314 1459.96 657.261 1427.79 657.261C1407.42 657.261 1388.03 654.41 1369.87 648.87C1351.62 643.25 1335.65 634.94 1321.97 623.943C1308.28 612.946 1297.28 599.26 1288.98 582.886C1280.67 566.512 1276.51 547.613 1276.51 526.189V524.56C1276.51 501.506 1280.83 481.385 1289.38 464.196C1297.94 447.008 1309.91 432.833 1325.23 421.51C1340.54 410.268 1358.71 401.796 1379.97 396.176C1401.15 390.473 1424.04 387.785 1448.72 387.785C1473.4 387.785 1496.3 389.414 1514.3 392.673C1532.22 395.931 1549.57 400.167 1566.19 405.544V395.117C1566.19 365.627 1557.23 343.062 1539.23 327.585C1521.22 312.025 1495.4 304.287 1461.59 304.287C1437.48 304.287 1415.97 306.73 1397.24 311.537C1378.42 316.424 1359.44 322.778 1340.13 330.843L1313.58 252.803C1337.2 242.05 1361.31 233.496 1386 227.061C1410.68 220.625 1440.41 217.448 1475.36 217.448C1538.66 217.448 1585.58 233.17 1616.13 264.533C1646.67 295.896 1661.99 340.048 1661.99 396.909V648.707H1565.38L1565.29 648.382ZM1567.74 468.188C1555.44 463.3 1540.77 459.39 1523.91 456.132C1506.97 452.873 1489.21 451.244 1470.39 451.244C1439.84 451.244 1415.89 457.191 1398.79 469.003C1381.6 480.815 1373.04 497.759 1373.04 519.672V521.301C1373.04 541.667 1380.95 557.226 1396.75 567.979C1412.63 578.732 1432.02 584.108 1455.08 584.108C1471.21 584.108 1486.03 581.99 1499.72 577.673C1513.4 573.355 1525.38 567.327 1535.56 559.588C1545.74 551.849 1553.64 542.4 1559.27 531.402C1564.97 520.405 1567.66 508.186 1567.66 494.826V468.269L1567.74 468.188Z" fill="#03577A"/>
<path d="M2831.95 635.917C2805.14 650.662 2771.09 657.994 2729.71 657.994C2698.1 657.994 2668.86 652.21 2641.98 640.642C2615.17 629.075 2591.88 613.271 2572.16 593.15C2552.37 573.029 2537.05 549.731 2525.89 523.174C2514.81 496.618 2509.27 468.106 2509.27 437.476C2509.27 406.847 2514.81 378.172 2525.89 351.371C2536.97 324.57 2552.37 300.946 2572.16 280.581C2591.96 260.215 2615.34 244.086 2642.38 232.274C2669.51 220.462 2698.92 214.596 2730.52 214.596C2770.77 214.596 2804.17 221.358 2830.72 234.718C2857.28 248.159 2880.5 265.836 2900.29 287.831L2839.93 353C2824.86 337.441 2808.97 324.651 2792.03 314.795C2775.08 304.856 2754.31 299.887 2729.63 299.887C2711.95 299.887 2695.58 303.553 2680.51 310.722C2665.44 317.89 2652.57 327.747 2641.89 340.129C2631.22 352.511 2622.67 366.849 2616.56 383.141C2610.45 399.515 2607.35 417.029 2607.35 435.847C2607.35 454.665 2610.45 473.157 2616.56 489.775C2622.67 506.393 2631.47 520.893 2642.71 533.194C2653.95 545.495 2667.39 555.27 2682.95 562.602C2698.51 569.852 2715.62 573.436 2734.44 573.436C2757.49 573.436 2777.69 568.548 2795.21 558.529C2812.64 548.59 2829.09 535.882 2844.73 520.323L2903.47 578.242C2882.53 601.866 2858.66 621.01 2831.86 635.755L2831.95 635.917Z" fill="#8DC440"/>
<path d="M3090.18 648.383H2992.01V61.0428L3090.18 61.0428V290.195C3097.1 279.85 3104.76 270.319 3113.07 261.439C3121.38 252.56 3130.99 244.495 3141.9 237.489C3152.82 230.484 3164.88 224.863 3177.99 220.871C3191.11 216.798 3205.93 214.843 3222.47 214.843C3270.61 214.843 3307.76 229.588 3333.99 259.077C3360.14 288.647 3373.34 328.238 3373.34 378.174V648.546L3275.18 648.546V407.745C3275.18 374.59 3267.36 349.011 3251.63 331.089C3235.91 313.167 3213.75 304.207 3185 304.207C3156.24 304.207 3133.92 313.412 3116.41 331.904C3098.89 350.396 3090.09 376.219 3090.09 409.374V648.628L3090.18 648.383Z" fill="#8DC440"/>
<path d="M1962.42 617.752C1965.92 621.01 1969.59 624.187 1973.25 627.201C1964.05 631.682 1954.52 635.103 1944.5 637.792C1936.84 639.828 1928.37 641.376 1919.32 642.272C1912.07 643.005 1904.33 643.412 1896.19 643.412C1884.38 643.412 1873.22 642.435 1862.63 640.48C1854.24 638.525 1846.42 635.511 1839 631.682C1805.36 614.249 1782.39 579.057 1782.39 538.652V294.267H1719.17V211.42L1797.21 211.583C1803.81 191.136 1815.54 162.869 1836.97 133.705C1866.86 92.8928 1901.57 69.5132 1923.23 57.2939C1910.2 72.5273 1889.83 100.713 1878.59 141.118C1870.77 169.386 1870.12 194.15 1871.18 211.42L1973.33 211.42C1960.22 222.254 1948 234.311 1937.16 247.345C1925.11 261.763 1914.6 277.567 1905.8 294.267C1886.09 331.658 1875.01 374.262 1875.01 419.392C1875.01 469.247 1888.53 515.843 1912.16 555.841C1922.83 573.844 1935.45 590.544 1949.95 605.614C1953.95 609.85 1958.1 613.923 1962.34 617.833V617.67L1962.42 617.752Z" fill="#8DC440"/>
<path d="M1962.09 618.324C1965.6 621.582 1969.26 624.759 1972.93 627.773C1970.97 628.751 1968.86 629.647 1966.9 630.461C1856.68 568.55 1782.15 450.512 1782.15 315.041C1782.15 279.198 1787.36 244.739 1797.05 212.073C1803.65 191.545 1815.38 163.359 1836.81 134.195C1866.7 93.3829 1901.41 70.0033 1923.07 57.7841C1910.04 73.0174 1889.67 101.203 1878.43 141.608C1870.61 169.876 1869.96 194.64 1871.02 211.91L1973.17 211.91C1960.06 222.744 1947.84 234.801 1937 247.835C1924.95 262.253 1914.44 278.057 1905.64 294.757C1885.93 332.148 1874.85 374.752 1874.85 419.882C1874.85 469.737 1888.37 516.333 1912 556.331C1922.67 574.334 1935.29 591.034 1949.79 606.104C1953.79 610.34 1957.94 614.413 1962.18 618.324H1962.09Z" fill="#64AC6F"/>
<path opacity="0.44" d="M1973.5 211.257C1960.38 222.091 1948.16 234.147 1937.33 247.181C1925.27 261.6 1914.76 277.404 1905.96 294.103C1903.68 298.584 1901.4 302.983 1899.36 307.626C1883.48 278.788 1873.79 245.959 1871.99 211.175L1973.5 211.175V211.257Z" fill="#8DC440"/>
<path d="M2033.94 38.314C2032.15 88.0872 1959.98 88.1686 1958.35 38.314C1959.9 -11.7036 2032.32 -11.6222 2033.94 38.314ZM2014.8 38.314C2013.99 12.9793 1977.25 13.0608 1976.35 38.314C1976.92 63.7301 2014.39 63.8115 2014.8 38.314Z" fill="#64AC6F"/>
<path d="M1966.32 202.785L1880.55 202.785L1880.3 193.498C1879.4 166.453 1885.19 139.489 1896.92 115.458C1915.09 78.4741 1942.62 56.8053 1962.58 45.2377L1972.19 61.8559C1957.77 70.2465 1930.97 89.4715 1914.11 123.93C1903.27 146.088 1899.85 167.431 1899.44 183.641L1966.24 183.641V202.866L1966.32 202.785Z" fill="#64AC6F"/>
</g>
<defs>
<clipPath id="clip0_1292_1528">
<rect width="3372.93" height="657.235" fill="white" transform="translate(0.32666 0.840576)"/>
</clipPath>
</defs>
</svg>
