<svg width="3288" height="1544" viewBox="0 0 3288 1544" fill="none" xmlns="http://www.w3.org/2000/svg">
<path d="M340.117 1046.01C340.877 1070.59 334.269 1094.42 321.129 1115.32C307.989 1135.54 291.204 1153.59 270.772 1167.34V1168.1C254.746 1178.92 236.442 1186.89 216.77 1191.17C197.782 1195.54 178.11 1198.39 158.362 1198.39C129.196 1198.39 99.9541 1192.6 72.9908 1181.03C45.9515 1168.77 21.1909 1152.83 0 1132.61L32.1281 1081.34C50.3568 1096.53 70.1046 1108.78 91.2195 1118.93C112.41 1129.08 135.044 1134.79 159.121 1134.79C171.502 1134.79 183.958 1133.36 195.579 1129.76C207.276 1126.9 217.453 1121.79 227.707 1115.32C237.201 1108.86 245.252 1100.14 251.025 1090.74C256.873 1079.91 260.519 1067.66 259.759 1055.33C260.519 1038.72 253.911 1022.1 241.53 1010.53C227.631 998.948 212.365 990.303 195.579 983.762C177.35 976.545 157.602 970.005 136.487 963.54C116.056 957.751 95.6248 949.106 77.3961 938.957C59.1674 928.808 43.8249 915.126 31.4445 898.512C19.0642 881.898 13.2158 859.495 13.2158 831.304C13.2158 787.927 26.3557 754.699 51.8759 731.619C78.1556 708.54 111.727 696.963 154.792 696.963H301.457L315.357 803.864L308.825 807.473C295.685 788.002 276.697 772.064 255.582 762.667C233.707 753.27 210.314 748.91 186.996 748.91C175.299 748.91 163.679 750.338 152.665 752.519C141.728 754.699 131.475 758.984 122.74 764.096C114.005 769.208 105.954 777.101 100.866 785.747C95.0172 795.895 92.131 808.149 92.8145 819.727C92.055 834.912 98.6629 849.346 111.043 857.991C124.943 868.14 140.969 876.034 156.995 881.823C175.224 888.288 195.655 894.828 216.846 901.293C238.037 907.082 257.708 916.479 276.697 928.056C294.925 939.633 311.027 954.819 322.648 972.862C334.345 990.904 340.193 1015.49 340.193 1045.86L340.117 1046.01Z" fill="#F3764A"/>
<path d="M887.504 1142.83C888.264 1155.84 884.618 1168.85 876.567 1179.67C869.275 1189.07 856.895 1194.1 839.35 1194.1H815.273V832.88L675.139 1193.35H613.086L473.712 846.638V1193.35H378.087V1187.56C390.468 1183.96 400.721 1177.42 409.456 1168.09C415.988 1157.27 418.95 1145.01 418.191 1132.69V755.599C418.191 726.731 404.291 709.365 377.328 704.328V697.111H487.536L655.392 1083.59L807.905 696.359H886.744L887.504 1142.83Z" fill="#F3764A"/>
<path d="M1346.56 1191.92H1209.32V1186.14C1219.57 1183.96 1228.99 1178.92 1237.04 1171.7C1245.09 1164.49 1249.42 1154.34 1249.42 1143.51C1249.42 1136.29 1247.98 1129.08 1245.78 1122.54C1243.57 1113.89 1240.69 1104.49 1237.04 1094.35C1233.39 1084.2 1230.51 1074.87 1226.79 1065.48C1223.14 1056.08 1220.26 1048.86 1218.74 1043.07H1044.27L985.181 1202C974.243 1201.25 963.99 1196.96 956.698 1189.74C948.647 1182.53 944.318 1172.38 944.318 1161.55C944.318 1157.94 945.077 1153.58 945.761 1149.98C946.52 1146.37 947.964 1142.76 949.407 1139.15L1116.58 696.359H1180.84L1346.49 1191.92H1346.56ZM1204.99 997.593L1136.4 797.472L1061.97 997.593H1204.99Z" fill="#F3764A"/>
<path d="M1648.02 749.812H1507.13V1130.51C1507.13 1142.76 1510.02 1154.34 1515.87 1164.49C1522.4 1176.06 1534.09 1183.96 1547.23 1186.14V1191.93H1434.82V749.812H1300.54V695.609H1648.71V749.812H1647.95H1648.02Z" fill="#F3764A"/>
<path d="M2016.56 833.635C2016.56 851.677 2013.67 870.472 2007.06 887.837C2000.53 903.7 1991.04 918.209 1979.34 930.463C1966.96 942.716 1952.3 952.114 1936.27 958.654C1918.73 965.871 1900.5 968.803 1881.51 968.803H1785.2V1192.75H1764.01C1729.68 1192.75 1712.9 1175.39 1712.9 1140.73V757.857C1713.65 745.603 1710.01 733.274 1703.4 723.2C1695.35 713.052 1684.41 706.586 1672.03 704.406V696.438H1872.78C1891.76 696.438 1910.75 700.046 1928.22 706.586C1945.01 713.052 1961.03 722.449 1974.17 734.778C1987.31 747.031 1998.25 761.541 2004.86 778.155C2012.91 795.52 2016.56 814.239 2016.56 833.785V833.635ZM1945.08 831.455C1945.08 821.306 1942.88 810.481 1938.55 801.084C1934.15 791.686 1928.3 783.041 1921.01 775.824C1913.72 768.607 1904.98 762.819 1895.49 758.458C1885.99 754.098 1875.06 751.993 1864.8 751.993H1785.28V913.097H1864.12C1885.99 914.525 1907.94 905.88 1923.21 890.018C1938.55 874.832 1946.53 853.181 1945.08 831.53V831.455Z" fill="#025679"/>
<path d="M2423.81 1191.92H2336.99L2206.35 967.973H2161.09V1191.92H2141.41C2121.74 1191.92 2108.6 1187.56 2100.55 1178.17C2092.5 1168.77 2088.85 1155.09 2088.85 1136.29V752.667C2089.61 741.09 2085.97 729.588 2078.6 720.19C2071.23 710.793 2060.37 705.005 2048.68 703.576V696.359H2255.19C2274.18 696.359 2293.17 699.968 2311.4 706.508C2328.18 712.973 2344.21 722.371 2357.35 734.7C2370.49 746.953 2381.43 761.462 2388.72 778.077C2396.01 795.442 2400.41 814.161 2399.65 833.707C2399.65 850.321 2396.77 867.687 2391.6 883.549C2386.51 897.983 2378.46 911.741 2368.29 923.318C2358.03 934.895 2346.41 944.292 2333.27 951.509C2319.37 958.726 2304.11 963.763 2288.76 965.267L2423.81 1192.07V1191.92ZM2328.18 832.204C2328.18 822.055 2325.98 811.229 2321.65 801.832C2317.25 792.435 2311.4 783.79 2304.11 776.573C2296.81 769.356 2288.08 763.567 2279.27 759.207C2269.77 754.847 2259.6 752.742 2249.34 752.742H2161.77V913.094C2176.35 913.846 2190.94 913.846 2205.59 913.846H2249.42C2271.29 915.274 2292.48 906.629 2307.83 890.766C2321.73 874.904 2329.02 853.93 2328.26 832.279L2328.18 832.204Z" fill="#025679"/>
<path d="M2881.41 941.286C2881.41 973.086 2876.33 1004.13 2867.52 1034.51C2858.78 1064.12 2844.88 1092.32 2826.65 1117.58C2808.42 1142.16 2785.79 1162.38 2758.75 1176.81C2730.27 1192.68 2698.14 1199.89 2665.33 1199.89C2633.2 1200.65 2601.07 1192.68 2572.67 1176.81C2546.39 1161.63 2523.07 1141.41 2505.52 1116.82C2487.3 1091.56 2473.4 1063.37 2464.66 1033.75C2455.93 1003.38 2450.76 972.334 2450.76 940.534C2450.76 908.735 2455.85 878.438 2464.66 848.819C2473.4 819.951 2487.98 792.436 2506.28 768.605C2524.51 745.526 2547.91 725.98 2574.19 711.546C2602.67 696.36 2634.04 689.143 2665.4 689.895C2697.53 689.143 2729.66 697.112 2758.07 711.546C2784.35 725.303 2807.66 744.774 2825.97 768.605C2844.96 792.436 2858.78 819.876 2867.59 848.819C2877.09 879.19 2881.49 910.238 2881.49 941.286H2881.41ZM2800.45 941.286C2800.45 920.312 2797.56 898.661 2793.16 877.687C2788.07 855.284 2780.02 834.31 2769.08 814.839C2758.83 796.045 2744.24 779.43 2726.77 766.425C2709.23 753.419 2687.36 746.202 2665.48 746.954C2643.61 746.202 2621.66 753.419 2604.87 766.425C2588.08 780.182 2573.5 796.796 2563.25 815.515C2552.31 834.986 2544.26 856.712 2539.17 879.115C2534.77 899.337 2531.88 920.988 2531.88 941.963C2531.88 966.545 2534.77 991.053 2540.61 1014.96C2550.11 1048.94 2566.13 1079.99 2589.53 1106C2596.06 1113.97 2603.43 1120.43 2611.4 1126.22C2619.45 1132.01 2628.19 1137.05 2637.68 1139.98C2647.18 1143.59 2657.35 1145.02 2667.61 1145.02C2690.24 1145.77 2711.43 1137.8 2728.9 1124.04C2746.45 1109.61 2760.27 1091.56 2770.52 1071.34C2781.46 1050.37 2789.51 1027.96 2794.6 1004.89C2797.49 983.911 2800.45 962.26 2800.45 941.286Z" fill="#025679"/>
<path d="M3263.16 833.63C3263.16 851.673 3260.27 870.467 3252.9 887.833C3240.52 920.309 3214.24 946.32 3182.11 959.326C3164.57 966.543 3146.34 969.475 3127.35 969.475H3031.04V1193.43H3009.85C2975.52 1193.43 2958.74 1176.06 2958.74 1141.4V758.529C2959.5 746.275 2955.85 733.946 2949.24 723.872C2941.19 713.723 2930.25 707.258 2917.87 705.078V697.109H3118.62C3137.61 697.109 3156.59 700.718 3174.06 707.258C3190.85 713.723 3206.87 723.121 3220.01 735.45C3233.15 747.703 3243.33 762.212 3250.7 778.826C3259.43 795.441 3263.08 814.235 3263.08 833.706L3263.16 833.63ZM3191.61 831.45C3191.61 821.301 3189.41 810.476 3185.08 801.079C3180.67 791.682 3174.82 783.036 3167.53 775.819C3160.24 768.602 3151.5 762.814 3142.01 758.454C3132.52 754.093 3121.58 751.988 3111.33 751.988H3031.8V913.092H3110.64C3132.52 914.521 3154.47 905.875 3169.73 890.013C3185.08 874.827 3193.05 853.176 3191.61 831.525V831.45Z" fill="#025679"/>
<path d="M3287.24 437.078L3252.91 497.745L3242.73 491.957L2496.8 79.4618L2495.35 80.8902L1769.85 481.808L1741.44 497.745L1707.11 437.078L1725.34 426.177L2485.86 5.78861L2495.35 0.751768L2496.8 0L3287.24 437.078Z" fill="#025679"/>
<path d="M2485.87 283.193H2388.8V379.269H2485.87V283.193Z" fill="#025679"/>
<path d="M2604.81 283.193H2507.74V379.269H2604.81V283.193Z" fill="#025679"/>
<path d="M2485.87 400.916H2388.8V496.992H2485.87V400.916Z" fill="#025679"/>
<path d="M2604.81 400.916H2507.74V496.992H2604.81V400.916Z" fill="#025679"/>
<path d="M10.9325 1499.7H17.4644C17.4644 1522.1 35.0096 1536.54 61.2893 1536.54C85.3664 1536.54 102.152 1522.78 102.152 1503.31C102.152 1480.91 81.7207 1476.55 60.5298 1471.51C37.8958 1466.47 14.5782 1461.36 14.5782 1434.67C14.5782 1411.6 32.8069 1397.09 60.5298 1397.09C88.2526 1397.09 105.798 1412.95 105.798 1436.85H99.2658C99.2658 1416.63 83.9233 1403.63 61.2893 1403.63C37.2122 1403.63 21.8697 1415.88 21.8697 1434.67C21.8697 1456.33 42.3011 1460.69 63.4919 1465.05C86.1259 1470.08 110.203 1475.19 110.203 1502.63C110.203 1527.22 90.5312 1543.08 62.7324 1543.08C31.3638 1543.83 10.9325 1526.47 10.9325 1499.7Z" fill="#025679"/>
<path d="M296.295 1541.58L272.977 1411.52L217.532 1535.04H215.329L160.567 1412.2L137.249 1542.26H130.718L156.238 1399.95H162.086L216.848 1524.21L272.294 1399.95H278.142L303.662 1542.26H296.371V1541.51L296.295 1541.58Z" fill="#025679"/>
<path d="M424.037 1500.38H344.514L326.969 1541.58H319.677L380.971 1399.27H386.82L449.557 1541.58H442.265L424.037 1500.38ZM347.4 1493.92H421.15L383.933 1408.66L347.476 1493.92H347.4Z" fill="#025679"/>
<path d="M535.011 1479.48L572.988 1541.58H564.937L527.72 1479.48H483.211V1541.58H476.679V1399.27H529.239C554.759 1399.27 573.064 1415.88 573.064 1439.71C572.304 1460.69 557.038 1477.3 535.087 1479.48H535.011ZM483.135 1473.69H528.403C550.278 1473.69 565.62 1459.26 565.62 1439.71C565.62 1420.17 550.278 1405.73 528.403 1405.73H483.135V1473.62V1473.69Z" fill="#025679"/>
<path d="M686.761 1405.81H640.05V1542.33H633.518V1405.81H586.807V1399.34H687.521L686.761 1405.81Z" fill="#025679"/>
<path d="M858.266 1441.89C858.266 1466.47 838.594 1485.27 812.998 1485.27H771.376V1542.33H764.844V1400.02H813.757C839.278 1399.26 858.266 1417.38 858.266 1441.89ZM851.734 1441.89C851.734 1420.92 834.948 1405.81 813.074 1405.81H771.452V1478.8H813.074C834.948 1478.8 851.734 1462.94 851.734 1441.97V1441.89Z" fill="#025679"/>
<path d="M946.605 1479.48L984.582 1541.58H976.531L939.314 1479.48H894.805V1541.58H888.273V1399.27H940.833C966.353 1399.27 984.658 1415.88 984.658 1439.71C984.658 1460.69 968.631 1477.3 946.681 1479.48H946.605ZM894.805 1473.69H940.073C961.948 1473.69 977.29 1459.26 977.29 1439.71C977.29 1420.17 961.948 1405.73 940.073 1405.73H894.805V1473.62V1473.69Z" fill="#025679"/>
<path d="M1007.9 1470.76C1007.9 1428.89 1038.58 1397.09 1082.33 1397.09C1126.08 1397.09 1156.76 1428.89 1156.76 1470.76C1156.76 1512.63 1126.08 1543.76 1082.33 1543.76C1038.58 1543.76 1007.9 1511.96 1007.9 1470.76ZM1149.55 1470.76C1149.55 1432.49 1121.07 1403.55 1082.41 1403.55C1043.75 1403.55 1015.26 1432.42 1015.26 1470.76C1015.26 1509.1 1043.75 1537.22 1082.41 1537.22C1121.07 1537.22 1149.55 1508.35 1149.55 1470.76Z" fill="#025679"/>
<path d="M1283.84 1441.89C1283.84 1466.47 1264.17 1485.27 1238.57 1485.27H1196.95V1542.33H1190.42V1400.02H1239.33C1264.17 1399.26 1283.84 1417.38 1283.84 1441.89ZM1277.23 1441.89C1277.23 1420.92 1260.45 1405.81 1238.57 1405.81H1196.95V1478.8H1238.57C1260.45 1478.8 1277.23 1462.94 1277.23 1441.97V1441.89Z" fill="#025679"/>
<path d="M1393.27 1535.11V1541.58H1313.75V1399.27H1391.15V1405.73H1320.36V1464.22H1386.06V1470.69H1320.36V1535.71L1393.35 1534.96L1393.27 1535.11Z" fill="#025679"/>
<path d="M1483.05 1479.48L1521.03 1541.58H1512.98L1475.76 1479.48H1431.26V1541.58H1424.72V1399.27H1477.28C1502.8 1399.27 1521.11 1415.88 1521.11 1439.71C1521.11 1460.69 1505.76 1477.3 1483.13 1479.48H1483.05ZM1431.94 1473.69H1477.21C1499.08 1473.69 1514.42 1459.26 1514.42 1439.71C1514.42 1420.17 1499.08 1405.73 1477.21 1405.73H1431.94V1473.62V1473.69Z" fill="#025679"/>
<path d="M1635.57 1405.81H1588.86V1542.33H1582.32V1405.81H1535.61V1399.34H1636.33V1405.81H1635.57Z" fill="#025679"/>
<path d="M1709.32 1485.27V1541.66H1702.79V1485.27L1648.02 1398.59H1655.32L1706.43 1478.81L1757.55 1398.59H1764.84L1709.39 1485.27H1709.32Z" fill="#025679"/>
<path d="M1999.75 1541.58L1976.44 1411.52L1920.99 1535.04H1918.79L1864.03 1411.52L1840.71 1541.58H1834.18L1859.7 1399.27H1865.54L1920.31 1523.53L1975.75 1399.27H1981.6L2007.12 1541.58H1999.83H1999.75Z" fill="#025679"/>
<path d="M2126.75 1500.38H2047.22L2029.68 1541.58H2022.39L2083.68 1399.27H2089.53L2152.27 1541.58H2144.98L2126.75 1500.38ZM2050.11 1493.92H2123.86L2086.64 1408.66L2050.19 1493.92H2050.11Z" fill="#025679"/>
<path d="M2288.83 1399.27V1541.58H2282.98L2186.67 1410.84V1541.58H2180.14V1399.27H2185.99L2282.3 1530V1399.27H2288.83Z" fill="#025679"/>
<path d="M2420.16 1500.38H2340.63L2323.09 1541.58H2315.8L2377.09 1399.27H2382.94L2445.68 1541.58H2438.38L2420.16 1500.38ZM2343.52 1493.92H2417.27L2380.05 1408.66L2343.59 1493.92H2343.52Z" fill="#025679"/>
<path d="M2601.15 1475.12C2599.71 1515.57 2570.46 1543.76 2530.36 1543.76C2488.06 1543.76 2458.13 1512.71 2458.13 1470.76C2458.13 1428.81 2488.81 1397.77 2529.68 1397.77C2563.25 1397.77 2591.73 1418.74 2598.26 1447.61H2591.73C2585.88 1422.35 2560.36 1404.23 2530.44 1404.23C2493.22 1404.23 2465.5 1432.42 2465.5 1470.69C2465.5 1508.95 2492.54 1537.14 2530.44 1537.14C2565.45 1537.14 2590.29 1514.74 2593.93 1481.51H2523.15V1475.05H2601.23L2601.15 1475.12Z" fill="#025679"/>
<path d="M2713.55 1535.12V1541.58H2634.03V1399.27H2711.42V1405.74H2640.64V1464.23H2706.33V1470.69H2640.64V1535.72L2713.63 1534.97L2713.55 1535.12Z" fill="#025679"/>
<path d="M2899.64 1541.58L2876.32 1411.53L2820.88 1535.04H2818.67L2763.91 1411.53L2740.59 1541.58H2734.06L2759.58 1399.27H2765.43L2820.19 1523.54L2875.64 1399.27H2881.49L2907.01 1541.58H2899.71H2899.64Z" fill="#025679"/>
<path d="M3019.35 1535.12V1541.58H2939.82V1399.27H3017.22V1405.74H2946.43V1464.23H3012.13V1470.69H2946.43V1535.72L3019.42 1534.97L3019.35 1535.12Z" fill="#025679"/>
<path d="M3160.24 1399.27V1541.58H3154.39L3058.08 1410.85V1541.58H3050.79V1399.27H3056.64L3152.95 1530.01V1399.27H3160.24Z" fill="#025679"/>
<path d="M3287.24 1405.81H3240.53V1542.33H3234V1405.81H3187.29V1399.34H3288V1405.81H3287.24Z" fill="#025679"/>
</svg>
